<svg fill="none" height="24" viewBox="0 0 94 24" width="94" xmlns="http://www.w3.org/2000/svg"><g fill="#fff"><path d="m14 12c0 3.8889-3.1111 7-7 7-3.88889 0-7-3.1111-7-7 0-3.88889 3.11111-7 7-7 3.8111 0 7 3.11111 7 7z"/><path d="m20.5333 15.0333c-1.0889 0-1.7111-.7-1.7111-1.8666v-6.0667h-2.7222v5.9889c0 2.6444 1.6333 4.1222 4.4333 4.1222s4.4334-1.4778 4.4334-4.1222v-5.9889h-2.7223v5.9889c0 1.2444-.6222 1.9444-1.7111 1.9444z"/><path d="m29.7889 17.2889c2.4111 0 3.9667-1.2445 3.9667-3.1889 0-1.3222-.7778-2.4111-2.9556-2.9556l-.7778-.2333c-1.0889-.3111-1.4778-.6222-1.4778-1.08888 0-.46666.4667-.77778 1.2445-.77778.9333 0 1.9444.54445 2.6444 1.16666l1.4-1.7111c-1.0889-.93333-2.4889-1.55556-4.0444-1.55556-2.3333 0-3.8889 1.24445-3.8889 3.18886 0 1.4778.9333 2.4111 2.7222 2.8778l.6222.1556c1.3223.3889 1.7889.6222 1.7889 1.1666 0 .5445-.4666.8556-1.2444.8556-1.1667 0-2.1778-.3889-2.9556-1.1667l-1.3222 1.6334c1.0889 1.0111 2.6445 1.6333 4.2778 1.6333z"/><path d="m41.4556 17.0556h2.8l-3.6556-9.9556h-3.1889l-3.6555 9.9556h2.7222l.6222-1.8667h3.7333zm-3.6556-3.8889 1.1667-3.50003 1.1666 3.50003z"/><path d="m49.5444 17.0556h2.7223v-7.77782h2.9555v-2.17778h-8.6333v2.17778h2.9555z"/><path d="m60.3556 17.2889c2.9555 0 5.1333-2.1 5.1333-5.1333 0-3.03338-2.1778-5.21116-5.1333-5.21116-2.9556 0-5.2112 2.17778-5.2112 5.21116 0 2.9555 2.1778 5.1333 5.2112 5.1333zm0-2.2556c-1.4 0-2.4112-1.1666-2.4112-2.8777 0-1.7112 1.0112-2.9556 2.4112-2.9556s2.4111 1.1667 2.4111 2.9556c-.0778 1.7111-1.0111 2.8777-2.4111 2.8777z"/><path d="m66.4222 17.0556h3.8889c2.9556 0 5.0556-2.0223 5.0556-4.9778 0-2.95558-2.1-4.9778-5.0556-4.9778h-3.8889zm2.7222-2.1v-5.67782h1.2445c1.4 0 2.3333 1.16662 2.3333 2.80002 0 1.7111-.8555 2.8-2.3333 2.8h-1.2445z"/><path d="m82.6 17.0556h2.8l-3.6556-9.9556h-3.1888l-3.6556 9.9556h2.7222l.6222-1.8667h3.7334zm-3.6555-3.8889 1.1666-3.50003 1.1667 3.50003z"/><path d="m89.8333 13.4778 3.5-6.3778h-3.1111l-1.8666 3.9667-1.8667-3.9667h-3.1111l3.5 6.3778v3.5778h2.8z"/></g></svg>