<?xml version="1.0" encoding="UTF-8"?>
<svg width="200px" height="25px" viewBox="0 0 200 25" version="1.1" xmlns="http://www.w3.org/2000/svg" xmlns:xlink="http://www.w3.org/1999/xlink">
    <title>5. Logo/wirecutter_white</title>
    <defs>
        <polygon id="path-1" points="0 0 19.0427 0 19.0427 24.576 0 24.576"></polygon>
        <polygon id="path-3" points="-2.84217094e-14 0 14.3815 0 14.3815 15.6255994 -2.84217094e-14 15.6255994"></polygon>
        <polygon id="path-5" points="0 24.576 200 24.576 200 0 0 0"></polygon>
    </defs>
    <g id="⚙️-Icons" stroke="none" stroke-width="1" fill="none" fill-rule="evenodd">
        <g id="Logos" transform="translate(-524.000000, -944.000000)">
            <g id="Group-27" transform="translate(524.000000, 944.000000)">
                <g id="Group-3">
                    <mask id="mask-2" fill="white">
                        <use xlink:href="#path-1"></use>
                    </mask>
                    <g id="Clip-2"></g>
                    <path d="M18.9497,15.1913 C18.2177,17.2683 16.6357,18.9343 14.5987,19.7713 L14.5987,15.1913 L17.0847,12.9353 L14.5987,10.7103 L14.5987,7.5593 C16.7317,7.5153 18.4447,5.7883 18.4707,3.6563 C18.4707,0.9523 15.8977,0.0013 14.4377,0.0013 C14.0397,-0.0097 13.6427,0.0323 13.2567,0.1263 L13.2567,0.2503 C13.4497,0.2503 13.7357,0.2193 13.8287,0.2193 C14.8477,0.2193 15.6127,0.6983 15.6127,1.6173 C15.5877,2.4273 14.9117,3.0643 14.1017,3.0393 C14.0747,3.0383 14.0477,3.0373 14.0207,3.0343 C11.5347,3.0343 8.5517,0.9963 5.3197,0.9963 C2.4607,0.9963 0.4907,3.1283 0.4907,5.2903 C0.4907,7.4533 1.7337,8.1183 3.0327,8.5973 L3.0327,8.4663 C2.5617,8.1643 2.2937,7.6273 2.3367,7.0683 C2.3867,6.0393 3.2607,5.2463 4.2887,5.2953 C4.3217,5.2973 4.3547,5.3003 4.3877,5.3033 C7.0917,5.3033 11.4477,7.5593 14.1517,7.5593 L14.4067,7.5593 L14.4067,10.7413 L11.8897,12.9353 L14.4067,15.1913 L14.4067,19.8153 C13.3647,20.1833 12.2667,20.3663 11.1627,20.3563 C6.9607,20.3743 4.2887,17.8323 4.2887,13.6003 C4.2807,12.5993 4.4187,11.6023 4.6987,10.6423 L6.7997,9.7223 L6.7997,19.0443 L11.0567,17.1803 L11.0567,7.6213 L4.7977,10.4243 C5.3897,8.6933 6.6497,7.2723 8.2967,6.4773 L8.2967,6.3843 C4.0707,7.3043 -0.0003,10.4923 -0.0003,15.2533 C-0.0003,20.7533 4.6427,24.5763 10.0497,24.5763 C15.7737,24.5763 19.0117,20.7603 19.0427,15.1973 L18.9497,15.1913 Z" id="Fill-1" fill="#FFFFFF" mask="url(#mask-2)"></path>
                </g>
                <path d="M75.3884,19.3429 L75.3884,12.3569 L74.1144,12.3569 L74.1144,8.2059 L82.5974,8.2059 L82.5974,10.5609 C83.9654,9.1009 85.4944,7.8579 87.6254,7.8579 C87.9224,7.8519 88.2194,7.8629 88.5144,7.8889 L88.5144,13.1709 C87.3734,13.1059 86.2274,13.1919 85.1084,13.4259 C84.2294,13.6069 83.4604,14.1359 82.9774,14.8929 C82.6914,15.4339 82.5974,16.0679 82.5974,17.8199 L82.5974,19.3429 L84.3134,19.3429 L84.3134,23.4819 L74.1144,23.4819 L74.1144,19.3429 L75.3884,19.3429 Z" id="Fill-4" fill="#FFFFFF"></path>
                <path d="M95.9105,15.0483 L99.6395,15.0483 L99.6395,14.6693 C99.6395,13.3643 99.3225,12.0273 97.7755,12.0273 C96.9985,12.0013 96.2975,12.4933 96.0595,13.2333 C95.8975,13.8243 95.8465,14.4393 95.9105,15.0483 M97.9805,23.7993 C95.6865,23.7993 93.1385,23.3203 91.3615,21.7293 C89.6485,20.2323 88.6825,18.0563 88.7195,15.7813 C88.7195,10.8093 92.6975,7.8883 97.4205,7.8883 C102.5735,7.8883 105.9785,11.5183 105.9785,15.9063 C105.9785,16.4153 105.9475,16.8943 105.9165,17.4043 L95.9415,17.4043 C96.1345,19.1873 97.0855,19.9833 98.5515,19.9833 C99.5245,19.9773 100.4255,19.4733 100.9385,18.6473 L105.9105,18.6473 C104.8855,22.1463 101.6715,23.7993 97.9805,23.7993" id="Fill-6" fill="#FFFFFF"></path>
                <path d="M113.8906,7.8886 C115.5126,7.8886 116.8176,8.2736 117.6196,9.1936 L117.6196,8.2056 L122.2006,8.2056 L122.2006,14.1596 L117.6196,14.1596 C117.6196,12.7616 116.9986,12.0276 116.0906,12.0276 C114.9476,12.0276 114.1826,13.2706 114.1826,15.0176 C114.1826,17.9136 115.9976,19.3116 118.5336,19.3116 C119.7846,19.2996 121.0286,19.1066 122.2246,18.7396 L122.2246,22.7176 C120.3466,23.4766 118.3336,23.8446 116.3086,23.7986 C114.4696,23.8906 112.6416,23.4736 111.0256,22.5936 C108.4856,21.0816 106.9546,18.3206 107.0166,15.3656 C107.0166,11.0396 109.9436,7.8886 113.8906,7.8886" id="Fill-8" fill="#FFFFFF"></path>
                <path d="M130.1181,23.7991 C126.7121,23.7991 124.6111,21.8291 124.6111,18.6471 L124.6111,12.3571 L123.2751,12.3571 L123.2751,8.2051 L131.8021,8.2051 L131.8021,17.3731 C131.8021,18.6471 132.3431,19.3431 133.4241,19.3431 C134.3821,19.3431 134.9531,18.6471 134.9531,17.3731 L134.9531,12.3571 L133.5241,12.3571 L133.5241,8.2051 L142.1441,8.2051 L142.1441,19.3431 L143.4181,19.3431 L143.4181,23.4821 L134.9531,23.4821 L134.9531,21.6801 C133.8101,22.5931 132.0571,23.7991 130.1181,23.7991" id="Fill-10" fill="#FFFFFF"></path>
                <polygon id="Fill-12" fill="#FFFFFF" points="143.7415 12.3572 143.7415 8.2052 145.1775 8.2052 145.1775 3.4322 152.3675 3.4322 152.3675 8.2052 154.4995 8.2052 154.4995 12.3572 152.3675 12.3572 152.3675 19.3432 154.4995 19.3432 154.4995 23.4822 145.1775 23.4822 145.1775 12.3572"></polygon>
                <polygon id="Fill-14" fill="#FFFFFF" points="155.4195 12.3572 155.4195 8.2052 156.8555 8.2052 156.8555 3.4322 164.0455 3.4322 164.0455 8.2052 166.1775 8.2052 166.1775 12.3572 164.0455 12.3572 164.0455 19.3432 166.1775 19.3432 166.1775 23.4822 156.8555 23.4822 156.8555 12.3572"></polygon>
                <path d="M174.3816,15.0483 L178.1106,15.0483 L178.1106,14.6693 C178.1106,13.3643 177.7936,12.0273 176.2466,12.0273 C175.4676,12.0003 174.7656,12.4923 174.5246,13.2333 C174.3676,13.8253 174.3216,14.4403 174.3876,15.0483 L174.3816,15.0483 Z M176.4446,23.7993 C174.1576,23.7993 171.6096,23.3203 169.8256,21.7293 C168.1166,20.2303 167.1506,18.0553 167.1846,15.7813 C167.1846,10.8093 171.1626,7.8883 175.8856,7.8883 C181.0446,7.8883 184.4496,11.5183 184.4496,15.9063 C184.4496,16.4153 184.4186,16.8943 184.3876,17.4043 L174.4186,17.4043 C174.6056,19.1873 175.5626,19.9833 177.0296,19.9833 C178.0006,19.9753 178.9016,19.4713 179.4156,18.6473 L184.3876,18.6473 C183.3626,22.1463 180.1736,23.7993 176.4446,23.7993 L176.4446,23.7993 Z" id="Fill-16" fill="#FFFFFF"></path>
                <g id="Group-20" transform="translate(185.618500, 7.856301)">
                    <mask id="mask-4" fill="white">
                        <use xlink:href="#path-3"></use>
                    </mask>
                    <g id="Clip-19"></g>
                    <path d="M1.274,11.4865994 L1.274,4.5005994 L-2.84217094e-14,4.5005994 L-2.84217094e-14,0.349599401 L8.465,0.349599401 L8.465,2.7045994 C9.832,1.2445994 11.361,0.00159940133 13.493,0.00159940133 C13.789,-0.00440059867 14.086,0.00659940133 14.382,0.0325994013 L14.382,5.3145994 C13.24,5.2495994 12.095,5.3355994 10.976,5.5695994 C10.098,5.7525994 9.332,6.2815994 8.85,7.0365994 C8.564,7.5775994 8.471,8.2115994 8.471,9.9635994 L8.471,11.4865994 L10.186,11.4865994 L10.186,15.6255994 L-2.84217094e-14,15.6255994 L-2.84217094e-14,11.4865994 L1.274,11.4865994 Z" id="Fill-18" fill="#FFFFFF" mask="url(#mask-4)"></path>
                </g>
                <path d="M71.7216,1.3442 L71.7216,6.7452 L64.5746,6.7452 L64.5746,1.3192 L71.7216,1.3442 Z M64.5746,19.3682 L64.5746,12.4132 L63.3316,12.4132 L63.3316,8.3052 L71.7406,8.3052 L71.7406,19.3682 L73.0636,19.3682 L73.0636,23.4762 L63.2936,23.4762 L63.2936,19.3682 L64.5746,19.3682 Z" id="Fill-21" fill="#FFFFFF"></path>
                <polygon id="Fill-23" fill="#FFFFFF" points="31.821 5.7879 31.821 1.3189 42.349 1.3189 42.349 5.7879 40.895 5.7879 43.12 14.7439 46.551 1.3189 52.032 1.3189 55.401 15.1789 55.457 15.1789 57.887 5.7879 55.612 5.7879 55.612 1.3189 63.257 1.3189 63.257 5.7879 62.387 5.7879 57.415 23.4819 50.404 23.4819 47.918 13.4699 47.856 13.4699 45.308 23.4819 38.247 23.4819 33.232 5.7879"></polygon>
                <mask id="mask-6" fill="white">
                    <use xlink:href="#path-5"></use>
                </mask>
                <g id="Clip-26"></g>
                <polygon id="Fill-25" fill="#FFFFFF" mask="url(#mask-6)" points="24.891 23.532 25.475 23.532 25.475 1.444 24.891 1.444"></polygon>
            </g>
        </g>
    </g>
</svg>